<?xml version="1.0" encoding="UTF-8"?>
<!DOCTYPE svg PUBLIC "-//W3C//DTD SVG 1.1//EN" "http://www.w3.org/Graphics/SVG/1.1/DTD/svg11.dtd">
<svg xmlns="http://www.w3.org/2000/svg" version="1.1" width="1000px" height="1000px" style="shape-rendering:geometricPrecision; text-rendering:geometricPrecision; image-rendering:optimizeQuality; fill-rule:evenodd; clip-rule:evenodd" xmlns:xlink="http://www.w3.org/1999/xlink">
<g><path style="opacity:1" fill="#fefefe" d="M -0.5,-0.5 C 332.833,-0.5 666.167,-0.5 999.5,-0.5C 999.5,332.833 999.5,666.167 999.5,999.5C 666.167,999.5 332.833,999.5 -0.5,999.5C -0.5,666.167 -0.5,332.833 -0.5,-0.5 Z"/></g>
<g><path style="opacity:1" fill="#0fd8fd" d="M 371.5,231.5 C 392.436,231.817 412.103,236.984 430.5,247C 455.643,261.244 478.643,278.411 499.5,298.5C 524.217,274.306 552.217,254.806 583.5,240C 638.268,219.961 671.101,238.461 682,295.5C 685.423,329.851 682.589,363.684 673.5,397C 673.833,397.833 674.167,398.667 674.5,399.5C 709.611,408.891 741.611,424.391 770.5,446C 785.68,458.166 795.513,473.666 800,492.5C 801.163,509.85 796.163,525.184 785,538.5C 767.203,557.286 746.37,571.786 722.5,582C 706.172,588.677 689.838,595.01 673.5,601C 681.727,631.986 684.894,663.486 683,695.5C 675.711,757.549 642.544,778.716 583.5,759C 552.217,744.194 524.217,724.694 499.5,700.5C 477.553,721.617 453.22,739.45 426.5,754C 406.966,764.174 386.299,768.174 364.5,766C 344.697,760.865 331.197,748.699 324,729.5C 315.912,705.465 313.245,680.799 316,655.5C 318.036,637.119 321.202,618.953 325.5,601C 325.095,600.055 324.428,599.388 323.5,599C 290.888,590.358 260.888,576.358 233.5,557C 219.23,546.742 208.73,533.575 202,517.5C 196.417,501.913 197.75,486.913 206,472.5C 217.26,455.239 231.76,441.406 249.5,431C 273.42,417.083 298.753,406.583 325.5,399.5C 317.829,367.96 314.662,335.96 316,303.5C 317.385,281.581 325.218,262.414 339.5,246C 348.889,238.135 359.555,233.302 371.5,231.5 Z"/></g>
<g><path style="opacity:1" fill="#fdfdfd" d="M 370.5,257.5 C 387.925,257.25 404.258,261.417 419.5,270C 442.153,282.979 462.82,298.646 481.5,317C 463.062,336.901 446.062,357.901 430.5,380C 403.529,382.329 376.862,386.495 350.5,392.5C 342.556,362.287 339.723,331.62 342,300.5C 343.291,286.61 348.458,274.443 357.5,264C 361.657,261.255 365.99,259.088 370.5,257.5 Z"/></g>
<g><path style="opacity:1" fill="#fdfdfd" d="M 612.5,257.5 C 626.773,254.964 638.273,259.297 647,270.5C 656.266,289.422 659.932,309.422 658,330.5C 656.794,351.488 653.627,372.155 648.5,392.5C 622.056,386.978 595.39,382.812 568.5,380C 553.016,357.842 536.016,336.842 517.5,317C 538.333,296.491 561.666,279.491 587.5,266C 595.709,262.431 604.042,259.598 612.5,257.5 Z"/></g>
<g><path style="opacity:1" fill="#fcfefe" d="M 498.5,335.5 C 511.753,348.121 523.753,361.955 534.5,377C 511.167,376.333 487.833,376.333 464.5,377C 475.483,362.86 486.816,349.027 498.5,335.5 Z"/></g>
<g><path style="opacity:1" fill="#fdfdfd" d="M 467.5,402.5 C 488.503,402.333 509.503,402.5 530.5,403C 538.577,403.098 546.577,403.765 554.5,405C 575.231,434.943 593.565,466.443 609.5,499.5C 593.565,532.557 575.231,564.057 554.5,594C 536.054,595.912 517.554,596.745 499,596.5C 480.747,596.756 462.58,595.923 444.5,594C 423.769,564.057 405.435,532.557 389.5,499.5C 405.56,466.361 423.894,434.694 444.5,404.5C 452.323,403.833 459.99,403.167 467.5,402.5 Z"/></g>
<g><path style="opacity:1" fill="#fcfefd" d="M 408.5,407.5 C 410.355,407.272 411.188,407.939 411,409.5C 398.578,428.672 386.911,448.338 376,468.5C 368.999,452.16 362.832,435.494 357.5,418.5C 358.912,417.194 360.579,416.36 362.5,416C 377.937,412.944 393.27,410.11 408.5,407.5 Z"/></g>
<g><path style="opacity:1" fill="#fcfdfd" d="M 588.5,408.5 C 606.62,409.8 624.287,413.133 641.5,418.5C 636.168,435.494 630.001,452.16 623,468.5C 611.729,448.282 600.229,428.282 588.5,408.5 Z"/></g>
<g><path style="opacity:1" fill="#fdfefd" d="M 328.5,424.5 C 331.238,423.965 333.072,424.965 334,427.5C 341.495,452.153 350.662,476.153 361.5,499.5C 350.528,523.579 341.028,548.245 333,573.5C 305,567.598 278.833,556.765 254.5,541C 243.243,533.078 234.077,523.245 227,511.5C 222.32,499.001 224.32,487.668 233,477.5C 248.297,460.927 266.464,448.427 287.5,440C 301.082,434.31 314.749,429.144 328.5,424.5 Z"/></g>
<g><path style="opacity:1" fill="#fdfefe" d="M 665.5,424.5 C 693.707,431.271 720.04,442.437 744.5,458C 755.757,465.922 764.923,475.755 772,487.5C 776.68,499.999 774.68,511.332 766,521.5C 750.703,538.073 732.536,550.573 711.5,559C 697.504,565.055 683.171,570.221 668.5,574.5C 667.558,574.392 666.725,574.059 666,573.5C 657.972,548.245 648.472,523.579 637.5,499.5C 648.813,475.227 658.146,450.227 665.5,424.5 Z"/></g>
<g><path style="opacity:1" fill="#07d8fe" d="M 489.5,445.5 C 522.53,443.251 543.696,457.917 553,489.5C 555.683,520.461 542.517,541.294 513.5,552C 480.688,557.349 458.521,544.516 447,513.5C 442.171,478.803 456.338,456.136 489.5,445.5 Z"/></g>
<g><path style="opacity:1" fill="#fcfefd" d="M 622.5,530.5 C 629.986,546.611 636.32,563.278 641.5,580.5C 633.13,583.537 624.463,585.704 615.5,587C 607.81,588.027 600.143,589.194 592.5,590.5C 591.167,590.167 589.833,589.833 588.5,589.5C 600.603,570.296 611.936,550.629 622.5,530.5 Z"/></g>
<g><path style="opacity:1" fill="#fcfefd" d="M 375.5,530.5 C 386.805,550.435 398.638,570.102 411,589.5C 411.591,590.483 411.257,591.15 410,591.5C 392.49,588.916 375.157,585.582 358,581.5C 362.712,564.199 368.546,547.199 375.5,530.5 Z"/></g>
<g><path style="opacity:1" fill="#fdfdfd" d="M 350.5,606.5 C 376.866,612.505 403.533,616.672 430.5,619C 446.062,641.099 463.062,662.099 481.5,682C 461.082,701.755 438.415,718.422 413.5,732C 404.485,736.005 395.152,739.005 385.5,741C 365,743.83 351.833,735.33 346,715.5C 340.484,694.777 339.15,673.777 342,652.5C 343.748,636.927 346.582,621.594 350.5,606.5 Z"/></g>
<g><path style="opacity:1" fill="#fdfdfd" d="M 644.5,606.5 C 646.144,606.286 647.644,606.62 649,607.5C 655.29,633.821 658.29,660.488 658,687.5C 657.295,701.989 653.628,715.656 647,728.5C 638.278,739.902 626.778,744.069 612.5,741C 603.841,739.336 595.508,736.669 587.5,733C 561.645,719.48 538.311,702.48 517.5,682C 535.938,662.099 552.938,641.099 568.5,619C 594.271,616.649 619.604,612.482 644.5,606.5 Z"/></g>
<g><path style="opacity:1" fill="#fcfefd" d="M 464.5,622.5 C 487.662,622.599 510.995,622.432 534.5,622C 523.367,636.298 511.701,650.131 499.5,663.5C 487.114,650.36 475.448,636.694 464.5,622.5 Z"/></g>
<g><path style="opacity:1" fill="#4e4e4e" d="M 15.5,772.5 C 15.5,770.833 15.5,769.167 15.5,767.5C 19.2766,767.901 22.9433,767.401 26.5,766C 28.2785,768.135 28.9452,770.635 28.5,773.5C 27.448,773.649 26.448,773.483 25.5,773C 26.8333,771.333 26.8333,769.667 25.5,768C 24.8333,767.333 24.1667,767.333 23.5,768C 22.9288,769.205 22.2621,770.372 21.5,771.5C 20.6143,770.675 20.281,769.675 20.5,768.5C 19.5,768.5 18.5,768.5 17.5,768.5C 17.2865,770.144 17.6198,771.644 18.5,773C 17.4232,773.47 16.4232,773.303 15.5,772.5 Z"/></g>
<g><path style="opacity:1" fill="#525252" d="M 15.5,792.5 C 15.5,790.833 15.5,789.167 15.5,787.5C 19.4853,784.697 22.9853,785.364 26,789.5C 27.1017,784.27 27.935,784.27 28.5,789.5C 28.1667,790.833 27.8333,792.167 27.5,793.5C 25.4201,791.411 23.0867,789.744 20.5,788.5C 17.6038,789.024 16.9372,790.524 18.5,793C 17.4232,793.47 16.4232,793.303 15.5,792.5 Z"/></g>
<g><path style="opacity:1" fill="#4c4c4c" d="M 18.5,799.5 C 18.5,799.833 18.5,800.167 18.5,800.5C 18.3691,801.376 18.7025,802.043 19.5,802.5C 22.6612,803.913 25.6612,805.58 28.5,807.5C 28,807.833 27.5,808.167 27,808.5C 24.1063,807.303 21.273,805.97 18.5,804.5C 17.8333,806.5 17.1667,808.5 16.5,810.5C 15.8145,806.122 15.4812,801.789 15.5,797.5C 19.8333,796.167 24.1667,796.167 28.5,797.5C 25.0227,798.167 21.6893,798.834 18.5,799.5 Z"/></g>
<g><path style="opacity:1" fill="#e1e1e1" d="M 18.5,799.5 C 21.6893,798.834 25.0227,798.167 28.5,797.5C 24.1667,796.167 19.8333,796.167 15.5,797.5C 15.4812,801.789 15.8145,806.122 16.5,810.5C 17.1667,808.5 17.8333,806.5 18.5,804.5C 21.273,805.97 24.1063,807.303 27,808.5C 27.5,808.167 28,807.833 28.5,807.5C 25.6612,805.58 22.6612,803.913 19.5,802.5C 18.7025,802.043 18.3691,801.376 18.5,800.5C 22.7428,801.269 26.9095,802.269 31,803.5C 32.3154,807.141 31.1488,809.474 27.5,810.5C 28.9761,812.42 29.9761,814.587 30.5,817C 30.3613,818.301 29.6946,819.134 28.5,819.5C 27.8858,814.886 25.2191,812.219 20.5,811.5C 16.1498,811.878 14.4832,814.211 15.5,818.5C 14.2413,809.975 14.2413,801.308 15.5,792.5C 16.4232,793.303 17.4232,793.47 18.5,793C 16.9372,790.524 17.6038,789.024 20.5,788.5C 23.0867,789.744 25.4201,791.411 27.5,793.5C 27.8333,792.167 28.1667,790.833 28.5,789.5C 27.935,784.27 27.1017,784.27 26,789.5C 22.9853,785.364 19.4853,784.697 15.5,787.5C 14.2477,782.491 14.2477,777.491 15.5,772.5C 16.4232,773.303 17.4232,773.47 18.5,773C 17.6198,771.644 17.2865,770.144 17.5,768.5C 18.5,768.5 19.5,768.5 20.5,768.5C 20.281,769.675 20.6143,770.675 21.5,771.5C 22.2621,770.372 22.9288,769.205 23.5,768C 24.1667,767.333 24.8333,767.333 25.5,768C 26.8333,769.667 26.8333,771.333 25.5,773C 26.448,773.483 27.448,773.649 28.5,773.5C 28.9452,770.635 28.2785,768.135 26.5,766C 22.9433,767.401 19.2766,767.901 15.5,767.5C 15.5,766.5 15.5,765.5 15.5,764.5C 20.1692,763.664 24.8358,763.164 29.5,763C 32.0893,766.736 32.0893,770.402 29.5,774C 30,774.5 30.5,775 31,775.5C 31.7619,783.215 31.4286,790.881 30,798.5C 26.27,799.46 22.4367,799.793 18.5,799.5 Z"/></g>
<g><path style="opacity:1" fill="#505050" d="M 22.5,775.5 C 27.8155,775.497 29.8155,778.164 28.5,783.5C 27.448,783.649 26.448,783.483 25.5,783C 26.8333,781.333 26.8333,779.667 25.5,778C 24.8333,777.333 24.1667,777.333 23.5,778C 22.9288,779.205 22.2621,780.372 21.5,781.5C 20.6143,780.675 20.281,779.675 20.5,778.5C 19.5,778.5 18.5,778.5 17.5,778.5C 17.2865,780.144 17.6198,781.644 18.5,783C 17.5509,783.617 16.7175,783.451 16,782.5C 14.4876,777.344 16.1542,775.677 21,777.5C 21.7172,776.956 22.2172,776.289 22.5,775.5 Z"/></g>
<g><path style="opacity:1" fill="#565656" d="M 28.5,819.5 C 26.3763,818.969 24.8763,817.635 24,815.5C 22.5858,820.726 19.7525,821.726 15.5,818.5C 14.4832,814.211 16.1498,811.878 20.5,811.5C 25.2191,812.219 27.8858,814.886 28.5,819.5 Z"/></g>
<g><path style="opacity:1" fill="#dbdbdb" d="M 17.5,814.5 C 18.8333,814.5 20.1667,814.5 21.5,814.5C 21.7778,816.346 21.1112,817.68 19.5,818.5C 17.8888,817.68 17.2222,816.346 17.5,814.5 Z"/></g>
<g><path style="opacity:1" fill="#555555" d="M 28.5,826.5 C 27.5,826.5 26.5,826.5 25.5,826.5C 25.5,828.167 25.5,829.833 25.5,831.5C 23.2972,831.396 21.2972,830.73 19.5,829.5C 20.5417,828.209 21.7083,828.209 23,829.5C 23.49,828.207 23.6567,826.873 23.5,825.5C 21.8333,825.5 20.1667,825.5 18.5,825.5C 18.5,826.5 18.5,827.5 18.5,828.5C 16.2407,827.656 15.2407,825.989 15.5,823.5C 19.9359,823.058 24.2693,823.058 28.5,823.5C 28.5,824.5 28.5,825.5 28.5,826.5 Z"/></g>
<g><path style="opacity:1" fill="#919191" d="M 19.5,829.5 C 18.8333,829.5 18.5,829.167 18.5,828.5C 18.5,827.5 18.5,826.5 18.5,825.5C 20.1667,825.5 21.8333,825.5 23.5,825.5C 23.6567,826.873 23.49,828.207 23,829.5C 21.7083,828.209 20.5417,828.209 19.5,829.5 Z"/></g>
<g><path style="opacity:1" fill="#4d4d4d" d="M 15.5,839.5 C 15.1201,837.302 15.7868,835.635 17.5,834.5C 21.5064,832.714 25.0064,833.38 28,836.5C 28.4325,840.735 26.4325,842.735 22,842.5C 19.2884,842.609 17.1217,841.609 15.5,839.5 Z"/></g>
<g><path style="opacity:1" fill="#cdcdcd" d="M 18.5,835.5 C 20.5273,835.338 22.5273,835.505 24.5,836C 27.1667,837.333 27.1667,838.667 24.5,840C 19.6398,841.456 17.6398,839.956 18.5,835.5 Z"/></g>
<g><path style="opacity:1" fill="#0d0d0d" d="M 639.5,839.5 C 646.373,839.22 653.04,840.22 659.5,842.5C 658.969,845.237 658.136,847.904 657,850.5C 651.168,847.638 645.002,846.804 638.5,848C 630.016,853.095 629.349,859.095 636.5,866C 644.191,868.928 651.358,872.761 658,877.5C 665.554,889.845 663.054,899.678 650.5,907C 642.175,908.959 633.842,908.959 625.5,907C 623.777,906.477 622.444,905.477 621.5,904C 622.137,901.755 622.97,899.588 624,897.5C 630.338,901.249 637.171,902.415 644.5,901C 652.546,898.073 655.046,892.573 652,884.5C 650.833,883.333 649.667,882.167 648.5,881C 639.476,878.073 631.643,873.239 625,866.5C 620.592,852.433 625.425,843.433 639.5,839.5 Z"/></g>
<g><path style="opacity:1" fill="#090909" d="M 379.5,906.5 C 376.604,907.775 373.604,907.775 370.5,906.5C 369.228,898.065 366.728,890.065 363,882.5C 361.581,881.54 360.081,880.707 358.5,880C 354.179,879.501 349.846,879.334 345.5,879.5C 345.5,888.833 345.5,898.167 345.5,907.5C 342.833,907.5 340.167,907.5 337.5,907.5C 337.5,885.5 337.5,863.5 337.5,841.5C 348.741,839.578 359.741,840.411 370.5,844C 377.681,850.41 379.514,858.244 376,867.5C 373.404,871.39 369.904,874.223 365.5,876C 369.667,877.5 372.5,880.333 374,884.5C 376.15,891.768 377.984,899.101 379.5,906.5 Z"/></g>
<g><path style="opacity:1" fill="#636363" d="M 610.5,841.5 C 607.833,841.5 605.167,841.5 602.5,841.5C 602.83,858.009 602.496,874.342 601.5,890.5C 601.5,873.833 601.5,857.167 601.5,840.5C 604.713,840.19 607.713,840.523 610.5,841.5 Z"/></g>
<g><path style="opacity:1" fill="#050505" d="M 610.5,841.5 C 610.667,858.837 610.5,876.17 610,893.5C 609.127,899.693 605.96,904.193 600.5,907C 594.258,908.37 587.925,908.87 581.5,908.5C 581.187,905.753 581.52,903.086 582.5,900.5C 592.794,904.191 599.127,900.857 601.5,890.5C 602.496,874.342 602.83,858.009 602.5,841.5C 605.167,841.5 607.833,841.5 610.5,841.5 Z"/></g>
<g><path style="opacity:1" fill="#494949" d="M 337.5,841.5 C 337.5,863.5 337.5,885.5 337.5,907.5C 340.167,907.5 342.833,907.5 345.5,907.5C 342.713,908.477 339.713,908.81 336.5,908.5C 336.169,885.994 336.503,863.66 337.5,841.5 Z"/></g>
<g><path style="opacity:1" fill="#e0e0e0" d="M 28.5,826.5 C 28.3379,828.527 28.5045,830.527 29,832.5C 32.3769,836.023 32.2103,839.356 28.5,842.5C 32.0182,846.067 32.3515,849.901 29.5,854C 29.9437,855.533 30.277,857.033 30.5,858.5C 29.3539,859.719 28.3539,861.052 27.5,862.5C 25.6837,863.735 24.017,863.735 22.5,862.5C 27.3881,862.208 28.0548,861.041 24.5,859C 25.624,858.751 26.624,858.251 27.5,857.5C 26.0521,856.646 24.7187,855.646 23.5,854.5C 22.8333,854.833 22.1667,855.167 21.5,855.5C 20.7348,854.388 19.7348,853.721 18.5,853.5C 16.8212,853.715 15.8212,853.048 15.5,851.5C 14.6633,847.427 14.6633,843.427 15.5,839.5C 17.1217,841.609 19.2884,842.609 22,842.5C 26.4325,842.735 28.4325,840.735 28,836.5C 25.0064,833.38 21.5064,832.714 17.5,834.5C 17.8308,832.678 18.4975,831.011 19.5,829.5C 21.2972,830.73 23.2972,831.396 25.5,831.5C 25.5,829.833 25.5,828.167 25.5,826.5C 26.5,826.5 27.5,826.5 28.5,826.5 Z"/></g>
<g><path style="opacity:1" fill="#f9f9f9" d="M 345.5,847.5 C 350.511,847.334 355.511,847.501 360.5,848C 370.451,852.968 372.118,859.968 365.5,869C 359.249,872.191 352.582,873.357 345.5,872.5C 345.5,864.167 345.5,855.833 345.5,847.5 Z"/></g>
<g><path style="opacity:1" fill="#505050" d="M 15.5,851.5 C 14.4919,846.333 16.3252,844.666 21,846.5C 23.3333,843.833 25.6667,843.833 28,846.5C 28.4955,848.473 28.6621,850.473 28.5,852.5C 27.448,852.649 26.448,852.483 25.5,852C 26.8333,850.333 26.8333,848.667 25.5,847C 24.8333,846.333 24.1667,846.333 23.5,847C 22.9288,848.205 22.2621,849.372 21.5,850.5C 20.6143,849.675 20.281,848.675 20.5,847.5C 19.5,847.5 18.5,847.5 17.5,847.5C 17.2865,849.144 17.6198,850.644 18.5,852C 17.4232,852.47 16.4232,852.303 15.5,851.5 Z"/></g>
<g><path style="opacity:1" fill="#5d5d5d" d="M 18.5,853.5 C 19.7348,853.721 20.7348,854.388 21.5,855.5C 22.1667,855.167 22.8333,854.833 23.5,854.5C 24.7187,855.646 26.0521,856.646 27.5,857.5C 26.624,858.251 25.624,858.751 24.5,859C 28.0548,861.041 27.3881,862.208 22.5,862.5C 22.2249,860.242 21.2249,859.908 19.5,861.5C 18.646,860.478 17.646,859.645 16.5,859C 17.3081,858.692 17.9747,858.192 18.5,857.5C 17.5,856.833 16.5,856.167 15.5,855.5C 16.6016,854.824 17.6016,854.158 18.5,853.5 Z"/></g>
<g><path style="opacity:1" fill="#0d0d0d" d="M 404.5,858.5 C 422.573,858.243 430.906,867.243 429.5,885.5C 418.167,885.5 406.833,885.5 395.5,885.5C 396.142,896.142 401.809,901.809 412.5,902.5C 416.1,902.355 419.6,901.689 423,900.5C 425.906,901.383 427.073,903.383 426.5,906.5C 396.171,914.328 383.671,902.995 389,872.5C 392.492,865.834 397.659,861.168 404.5,858.5 Z"/></g>
<g><path style="opacity:1" fill="#0a0a0a" d="M 449.5,858.5 C 460.043,856.722 467.877,860.389 473,869.5C 473.268,882.187 473.768,894.854 474.5,907.5C 471.833,907.5 469.167,907.5 466.5,907.5C 466.785,905.712 466.452,904.045 465.5,902.5C 463.358,905.073 460.692,906.906 457.5,908C 441.029,910.53 434.529,903.697 438,887.5C 445.294,879.212 454.46,875.879 465.5,877.5C 465.733,868.9 461.566,864.9 453,865.5C 449.126,865.187 445.626,866.187 442.5,868.5C 441.058,866.684 440.558,864.684 441,862.5C 443.876,861.052 446.709,859.719 449.5,858.5 Z"/></g>
<g><path style="opacity:1" fill="#0e0e0e" d="M 504.5,858.5 C 509.58,858.25 514.58,858.75 519.5,860C 522.493,861.246 522.993,863.413 521,866.5C 520.439,867.022 519.772,867.355 519,867.5C 508.705,863.376 500.705,866.043 495,875.5C 491.17,886.318 494.004,894.818 503.5,901C 509.32,901.95 514.987,901.45 520.5,899.5C 521.292,901.465 521.959,903.465 522.5,905.5C 518.37,907.884 513.87,908.884 509,908.5C 492.428,908.259 484.261,899.759 484.5,883C 485.503,870.167 492.17,862.001 504.5,858.5 Z"/></g>
<g><path style="opacity:1" fill="#646464" d="M 544.5,859.5 C 548.833,859.5 553.167,859.5 557.5,859.5C 557.802,862.059 557.468,864.393 556.5,866.5C 556.5,864.5 556.5,862.5 556.5,860.5C 552.298,860.817 548.298,860.483 544.5,859.5 Z"/></g>
<g><path style="opacity:1" fill="#f3f3f3" d="M 403.5,865.5 C 414.688,863.7 420.355,868.366 420.5,879.5C 412.167,879.5 403.833,879.5 395.5,879.5C 396.124,873.577 398.79,868.91 403.5,865.5 Z"/></g>
<g><path style="opacity:1" fill="#d6d6d6" d="M 32.5,872.5 C 29.7425,871.182 26.5758,870.515 23,870.5C 19.4242,870.515 16.2575,871.182 13.5,872.5C 12.2947,871.328 12.2947,869.995 13.5,868.5C 19.8072,867.336 26.1405,867.169 32.5,868C 33.8009,869.616 33.8009,871.116 32.5,872.5 Z"/></g>
<g><path style="opacity:1" fill="#636363" d="M 32.5,872.5 C 26.1667,872.5 19.8333,872.5 13.5,872.5C 16.2575,871.182 19.4242,870.515 23,870.5C 26.5758,870.515 29.7425,871.182 32.5,872.5 Z"/></g>
<g><path style="opacity:1" fill="#5f5f5f" d="M 15.5,887.5 C 13.9519,887.179 13.2852,886.179 13.5,884.5C 16.1873,884.664 18.854,884.497 21.5,884C 20.2899,882.961 19.2899,881.794 18.5,880.5C 18.369,879.761 18.5357,879.094 19,878.5C 20.3333,879.833 21.6667,881.167 23,882.5C 24.6667,881.167 26.3333,879.833 28,878.5C 28.6302,880.903 27.7969,882.737 25.5,884C 26.448,884.483 27.448,884.649 28.5,884.5C 28.5,885.5 28.5,886.5 28.5,887.5C 24.1667,887.5 19.8333,887.5 15.5,887.5 Z"/></g>
<g><path style="opacity:1" fill="#f7f7f7" d="M 455.5,883.5 C 458.833,883.5 462.167,883.5 465.5,883.5C 465.977,888.742 465.144,893.742 463,898.5C 457.189,903.698 451.522,903.698 446,898.5C 445.183,895.036 445.517,891.702 447,888.5C 449.682,886.415 452.516,884.748 455.5,883.5 Z"/></g>
<g><path style="opacity:1" fill="#101010" d="M 544.5,859.5 C 548.298,860.483 552.298,860.817 556.5,860.5C 556.5,862.5 556.5,864.5 556.5,866.5C 552.5,866.5 548.5,866.5 544.5,866.5C 544.069,877.578 544.569,888.578 546,899.5C 546.5,900 547,900.5 547.5,901C 550.482,901.498 553.482,901.665 556.5,901.5C 556.5,903.833 556.5,906.167 556.5,908.5C 545.654,911.655 538.82,907.989 536,897.5C 535.5,887.172 535.334,876.839 535.5,866.5C 533.167,866.5 530.833,866.5 528.5,866.5C 528.5,864.167 528.5,861.833 528.5,859.5C 530.833,859.5 533.167,859.5 535.5,859.5C 535.335,855.818 535.501,852.152 536,848.5C 538.738,847.518 541.572,846.852 544.5,846.5C 544.5,850.833 544.5,855.167 544.5,859.5 Z"/></g>
<g><path style="opacity:1" fill="#e4e4e4" d="M 14.5,921.5 C 16.1599,923.248 18.1599,923.748 20.5,923C 21.9557,921.255 23.289,919.422 24.5,917.5C 25.086,917.709 25.586,918.043 26,918.5C 26.1792,920.424 26.3459,922.091 26.5,923.5C 28.4461,921.956 28.9461,919.956 28,917.5C 26.5341,915.675 24.7008,915.175 22.5,916C 21.0443,917.745 19.711,919.578 18.5,921.5C 17.3112,919.637 15.9779,917.97 14.5,916.5C 14.8333,915.167 15.1667,913.833 15.5,912.5C 17.143,912.48 18.4763,913.147 19.5,914.5C 22.2123,912.74 25.2123,912.073 28.5,912.5C 28.762,911.022 28.4287,909.689 27.5,908.5C 24.8333,911.167 22.1667,911.167 19.5,908.5C 18.4763,909.853 17.143,910.52 15.5,910.5C 15.5,909.5 15.5,908.5 15.5,907.5C 17.1788,907.715 18.1788,907.048 18.5,905.5C 20.8357,907.391 23.5024,907.891 26.5,907C 29.1667,904.333 29.1667,901.667 26.5,899C 21.1707,897.178 18.504,899.011 18.5,904.5C 17.6648,901.006 17.6648,897.34 18.5,893.5C 17.8419,891.361 16.8419,889.361 15.5,887.5C 19.8333,887.5 24.1667,887.5 28.5,887.5C 28.5,886.5 28.5,885.5 28.5,884.5C 27.448,884.649 26.448,884.483 25.5,884C 27.7969,882.737 28.6302,880.903 28,878.5C 26.3333,879.833 24.6667,881.167 23,882.5C 21.6667,881.167 20.3333,879.833 19,878.5C 18.5357,879.094 18.369,879.761 18.5,880.5C 17.156,878.815 17.3227,877.148 19,875.5C 22.959,877.478 27.1257,877.811 31.5,876.5C 31.6661,882.176 31.4994,887.843 31,893.5C 30.1667,894.333 29.3333,895.167 28.5,896C 32.1387,901.723 32.4721,907.723 29.5,914C 33.7072,922.075 31.2072,925.908 22,925.5C 19.9307,924.736 17.764,924.236 15.5,924C 14.7476,923.329 14.4142,922.496 14.5,921.5 Z"/></g>
<g><path style="opacity:1" fill="#525252" d="M 18.5,893.5 C 18.238,892.022 18.5713,890.689 19.5,889.5C 21.9962,896.114 24.6628,896.114 27.5,889.5C 29.0308,895.466 26.6975,897.632 20.5,896C 19.9341,895.005 19.2674,894.172 18.5,893.5 Z"/></g>
<g><path style="opacity:1" fill="#565656" d="M 18.5,905.5 C 18.5,905.167 18.5,904.833 18.5,904.5C 18.504,899.011 21.1707,897.178 26.5,899C 29.1667,901.667 29.1667,904.333 26.5,907C 23.5024,907.891 20.8357,907.391 18.5,905.5 Z"/></g>
<g><path style="opacity:1" fill="#d1d1d1" d="M 21.5,900.5 C 25.1378,899.737 26.6378,901.07 26,904.5C 21.4155,906.413 19.9155,905.079 21.5,900.5 Z"/></g>
<g><path style="opacity:1" fill="#868686" d="M 370.5,906.5 C 373.604,907.775 376.604,907.775 379.5,906.5C 380.043,906.56 380.376,906.893 380.5,907.5C 378.833,907.833 377.167,908.167 375.5,908.5C 373.36,908.444 371.694,907.777 370.5,906.5 Z"/></g>
<g><path style="opacity:1" fill="#4a4a4a" d="M 15.5,912.5 C 15.5,911.833 15.5,911.167 15.5,910.5C 17.143,910.52 18.4763,909.853 19.5,908.5C 22.1667,911.167 24.8333,911.167 27.5,908.5C 28.4287,909.689 28.762,911.022 28.5,912.5C 25.2123,912.073 22.2123,912.74 19.5,914.5C 18.4763,913.147 17.143,912.48 15.5,912.5 Z"/></g>
<g><path style="opacity:1" fill="#4e4e4e" d="M 14.5,921.5 C 14.5,919.833 14.5,918.167 14.5,916.5C 15.9779,917.97 17.3112,919.637 18.5,921.5C 19.711,919.578 21.0443,917.745 22.5,916C 24.7008,915.175 26.5341,915.675 28,917.5C 28.9461,919.956 28.4461,921.956 26.5,923.5C 26.3459,922.091 26.1792,920.424 26,918.5C 25.586,918.043 25.086,917.709 24.5,917.5C 23.289,919.422 21.9557,921.255 20.5,923C 18.1599,923.748 16.1599,923.248 14.5,921.5 Z"/></g>
<g><path style="opacity:1" fill="#525252" d="M 20.5,930.5 C 21.8333,930.5 23.1667,930.5 24.5,930.5C 24.0949,937.94 25.0949,938.274 27.5,931.5C 28.7721,938.206 26.1054,940.206 19.5,937.5C 17.9139,934.784 18.2472,932.45 20.5,930.5 Z"/></g>
<g><path style="opacity:1" fill="#e1e1e1" d="M 20.5,932.5 C 22.3442,933.204 22.8442,934.537 22,936.5C 20.8118,935.437 20.3118,934.103 20.5,932.5 Z"/></g>
<g><path style="opacity:1" fill="#575757" d="M 13.5,949.5 C 13.5,948.5 13.5,947.5 13.5,946.5C 15.1667,946.5 16.8333,946.5 18.5,946.5C 18.329,941.506 20.6624,939.672 25.5,941C 28.1252,943.196 29.1252,946.03 28.5,949.5C 23.5,949.5 18.5,949.5 13.5,949.5 Z"/></g>
<g><path style="opacity:1" fill="#535353" d="M 19.5,959.5 C 19.5,958.833 19.1667,958.5 18.5,958.5C 18.7063,951.372 21.873,949.706 28,953.5C 28.7259,960.219 25.8925,962.219 19.5,959.5 Z"/></g>
<g><path style="opacity:1" fill="#e3e3e3" d="M 28.5,984.5 C 28.3059,982.088 26.9726,981.088 24.5,981.5C 23.5985,977.759 24.9319,975.759 28.5,975.5C 28.719,974.325 28.3857,973.325 27.5,972.5C 23.2746,974.242 18.9413,975.576 14.5,976.5C 14.5,977.833 14.5,979.167 14.5,980.5C 12.3442,976.177 13.6775,973.511 18.5,972.5C 19.2975,972.043 19.6309,971.376 19.5,970.5C 26.4207,973.077 29.2541,970.744 28,963.5C 23.5986,962.533 19.0986,962.2 14.5,962.5C 15.9133,961.065 17.58,960.065 19.5,959.5C 25.8925,962.219 28.7259,960.219 28,953.5C 21.873,949.706 18.7063,951.372 18.5,958.5C 17.1857,956.105 17.1857,953.605 18.5,951C 16.6183,950.802 14.9516,950.302 13.5,949.5C 18.5,949.5 23.5,949.5 28.5,949.5C 29.1252,946.03 28.1252,943.196 25.5,941C 20.6624,939.672 18.329,941.506 18.5,946.5C 16.8333,946.5 15.1667,946.5 13.5,946.5C 14.1834,944.824 15.5168,944.157 17.5,944.5C 17.8782,942.079 18.5448,939.746 19.5,937.5C 26.1054,940.206 28.7721,938.206 27.5,931.5C 25.0949,938.274 24.0949,937.94 24.5,930.5C 23.1667,930.5 21.8333,930.5 20.5,930.5C 21.6936,929.223 23.3603,928.556 25.5,928.5C 29.5671,927.553 31.5671,929.053 31.5,933C 31.2477,935.394 30.2477,937.394 28.5,939C 30.2477,940.606 31.2477,942.606 31.5,945C 31.1717,952.816 31.1717,960.649 31.5,968.5C 31.3333,970.833 31.1667,973.167 31,975.5C 29.7949,976.071 28.6283,976.738 27.5,977.5C 29.0314,978.613 30.0314,980.113 30.5,982C 30.3158,983.376 29.6491,984.209 28.5,984.5 Z"/></g>
<g><path style="opacity:1" fill="#d4d4d4" d="M 21.5,953.5 C 25.1378,952.737 26.6378,954.07 26,957.5C 21.4155,959.413 19.9155,958.079 21.5,953.5 Z"/></g>
<g><path style="opacity:1" fill="#d9d9d9" d="M 21.5,942.5 C 23.9124,942.244 25.5791,943.244 26.5,945.5C 24.604,946.466 22.604,946.799 20.5,946.5C 20.4326,945.041 20.7659,943.708 21.5,942.5 Z"/></g>
<g><path style="opacity:1" fill="#545454" d="M 14.5,962.5 C 19.0986,962.2 23.5986,962.533 28,963.5C 29.2541,970.744 26.4207,973.077 19.5,970.5C 18.962,968.883 18.6287,967.216 18.5,965.5C 16.8333,965.5 15.1667,965.5 13.5,965.5C 13.2627,964.209 13.596,963.209 14.5,962.5 Z"/></g>
<g><path style="opacity:1" fill="#d8d8d8" d="M 20.5,965.5 C 22.5,965.5 24.5,965.5 26.5,965.5C 26.9153,967.948 25.9153,969.281 23.5,969.5C 21.5323,968.9 20.5323,967.567 20.5,965.5 Z"/></g>
<g><path style="opacity:1" fill="#505050" d="M 28.5,984.5 C 23.8911,982.964 19.2244,981.63 14.5,980.5C 14.5,979.167 14.5,977.833 14.5,976.5C 18.9413,975.576 23.2746,974.242 27.5,972.5C 28.3857,973.325 28.719,974.325 28.5,975.5C 24.9319,975.759 23.5985,977.759 24.5,981.5C 26.9726,981.088 28.3059,982.088 28.5,984.5 Z"/></g>
<g><path style="opacity:1" fill="#d0d0d0" d="M 21.5,976.5 C 22.782,977.708 22.782,979.042 21.5,980.5C 16.3429,979.088 16.3429,977.754 21.5,976.5 Z"/></g>
</svg>
